<?xml version="1.0" encoding="UTF-8" standalone="no"?>
<svg xmlns:svg="http://www.w3.org/2000/svg" xmlns="http://www.w3.org/2000/svg" viewBox="0 0 119 85" version="1.1">
  <style>
    .underline {
      fill: none;
      stroke: #cc9b54;
      stroke-width: 3;
      stroke-linecap: round;
    }
    .star {
      fill: #cc9b54;
    }
  </style>
  <g transform="translate(-15.3,-46)">
    <path class="underline" d="m 37.6,107.6 c 0,0 14.3,-5.9 35,-6.8 20.6,-1 30,-1e-5 30,-1e-5 0,0 6,0.8 5.9,4 -0.2,3.2 -10.6,2.5 -10.6,2.5 0,0 -12.7,-0.4 -15.1,-0.2 -2.5,0.2 -12.1,1 -14,1.7 -1.9,0.8 -3,0.9 -1.7,1.3 1.3,0.4 11.7,0.9 13,1.1 1.3,0.2 5.9,0.6 5.9,2.1 0,1.5 -5.7,4.5 -7.7,4.9" />
    <path class="star" d="m 83.6,61.4 c 0,0.1 -2.1,1.1 -2.2,1.2 -0.1,0.1 1,2.3 0.8,2.4 -0.1,0.1 -1.7,-1.7 -1.8,-1.7 -0.2,-0 -1.9,1.6 -2,1.5 -0.1,-0.1 1.1,-2.1 1.1,-2.3 -0,-0.1 -2.1,-1.3 -2,-1.4 0.1,-0.1 2.3,0.4 2.5,0.3 0.1,-0.1 0.6,-2.4 0.7,-2.4 0.2,0 0.4,2.4 0.5,2.4 0.1,0.1 2.5,-0.2 2.5,-0 z" transform="rotate(0.8,80.5,62.3)" />
    <path class="star" d="m 63.7,59.7 c 0,0.1 -1.3,0.7 -1.3,0.7 -0,0.1 0.6,1.4 0.5,1.5 -0.1,0.1 -1,-1 -1.1,-1.1 -0.1,-0 -1.2,1 -1.2,1 -0.1,-0.1 0.7,-1.3 0.7,-1.4 -0,-0.1 -1.3,-0.8 -1.3,-0.9 0,-0.1 1.4,0.2 1.5,0.2 0.1,-0.1 0.4,-1.5 0.4,-1.5 0.1,0 0.2,1.5 0.3,1.5 0.1,0.1 1.5,-0.1 1.5,-0 z" transform="rotate(-11.45632,61.814189,60.253638)" />
    <path class="star" d="m 64.7,72.2 c 0.1,0.2 -3.2,1.6 -3.3,1.8 -0.1,0.2 1.4,3.4 1.2,3.5 -0.2,0.1 -2.5,-2.5 -2.7,-2.5 -0.2,-0 -2.8,2.4 -3,2.2 -0.2,-0.1 1.6,-3.1 1.6,-3.4 -0.1,-0.2 -3.1,-1.9 -3.1,-2.1 0.1,-0.2 3.5,0.6 3.7,0.5 0.2,-0.1 0.9,-3.6 1.1,-3.6 0.2,0 0.5,3.5 0.7,3.7 0.2,0.1 3.7,-0.3 3.7,-0.1 z"
       transform="rotate(-22.6,60,73.5)" />
    <path class="star" d="m 92.8,60.4 c 0.0,0.1 -0.8,0.4 -0.8,0.5 -0.0,0.1 0.4,0.9 0.3,0.9 -0.0,0.0 -0.6,-0.7 -0.7,-0.7 -0.1,-0.0 -0.7,0.6 -0.8,0.6 -0.0,-0.0 0.4,-0.8 0.4,-0.9 -0.0,-0.1 -0.8,-0.5 -0.8,-0.6 0.0,-0.1 0.9,0.2 1.0,0.1 0.0,-0.0 0.2,-0.9 0.3,-0.9 0.1,0.0 0.1,0.9 0.2,0.9 0.0,0.0 0.9,-0.1 1.0,-0.0 z" transform="rotate(-4.4,91.5,60.7)" />
    <path class="star" d="m 110.7,69.2 c 0.0,0.1 -0.8,0.4 -0.8,0.5 -0.0,0.1 0.4,0.9 0.3,0.9 -0.0,0.0 -0.6,-0.7 -0.7,-0.7 -0.1,-0.0 -0.7,0.6 -0.8,0.6 -0.0,-0.0 0.4,-0.8 0.4,-0.9 -0.0,-0.1 -0.8,-0.5 -0.8,-0.6 0.0,-0.1 0.9,0.2 1.0,0.1 0.0,-0.0 0.2,-0.9 0.3,-0.9 0.1,0.0 0.1,0.9 0.2,0.9 0.0,0.0 0.9,-0.1 1.0,-0.0 z" transform="rotate(-10.3,109.5,69.6)" />
    <path class="star" d="m 89.5,75.4 c 0.0,0.1 -0.8,0.4 -0.8,0.5 -0.0,0.1 0.4,0.9 0.3,0.9 -0.0,0.0 -0.6,-0.7 -0.7,-0.7 -0.1,-0.0 -0.7,0.6 -0.8,0.6 -0.0,-0.0 0.4,-0.8 0.4,-0.9 -0.0,-0.1 -0.8,-0.5 -0.8,-0.6 0.0,-0.1 0.9,0.2 1.0,0.1 0.0,-0.0 0.2,-0.9 0.3,-0.9 0.1,0.0 0.1,0.9 0.2,0.9 0.0,0.0 0.9,-0.1 1.0,-0.0 z" transform="rotate(-13,88.3,75.7)" />
    <path class="star" d="m 71.6,66.0 c 0.0,0.1 -0.8,0.4 -0.8,0.5 -0.0,0.1 0.4,0.9 0.3,0.9 -0.0,0.0 -0.6,-0.7 -0.7,-0.7 -0.1,-0.0 -0.7,0.6 -0.8,0.6 -0.0,-0.0 0.4,-0.8 0.4,-0.9 -0.0,-0.1 -0.8,-0.5 -0.8,-0.6 0.0,-0.1 0.9,0.2 1.0,0.1 0.0,-0.0 0.2,-0.9 0.3,-0.9 0.1,0.0 0.1,0.9 0.2,0.9 0.0,0.0 0.9,-0.1 1.0,-0.0 z" transform="rotate(-11.3,70.4,66.3)" />
    <path class="star" d="m 43.3,71.8 c 0.0,0.1 -0.8,0.4 -0.8,0.5 -0.0,0.1 0.4,0.9 0.3,0.9 -0.0,0.0 -0.6,-0.7 -0.7,-0.7 -0.1,-0.0 -0.7,0.6 -0.8,0.6 -0.0,-0.0 0.4,-0.8 0.4,-0.9 -0.0,-0.1 -0.8,-0.5 -0.8,-0.6 0.0,-0.1 0.9,0.2 1.0,0.1 0.0,-0.0 0.2,-0.9 0.3,-0.9 0.1,0.0 0.1,0.9 0.2,0.9 0.0,0.0 0.9,-0.1 1.0,-0.0 z" />
    <path class="star" d="m 41.1,98.0 c 0.0,0.1 -0.8,0.4 -0.8,0.5 -0.0,0.1 0.4,0.9 0.3,0.9 -0.0,0.0 -0.6,-0.7 -0.7,-0.7 -0.1,-0.0 -0.7,0.6 -0.8,0.6 -0.0,-0.0 0.4,-0.8 0.4,-0.9 -0.0,-0.1 -0.8,-0.5 -0.8,-0.6 0.0,-0.1 0.9,0.2 1.0,0.1 0.0,-0.0 0.2,-0.9 0.3,-0.9 0.1,0.0 0.1,0.9 0.2,0.9 0.0,0.0 0.9,-0.1 1.0,-0.0 z" transform="rotate(-15,39.9,98.3)" />
    <path class="star" d="m 44.0,93.5 c 0.0,0.1 -0.8,0.4 -0.8,0.5 -0.0,0.1 0.4,0.9 0.3,0.9 -0.0,0.0 -0.6,-0.7 -0.7,-0.7 -0.1,-0.0 -0.7,0.6 -0.8,0.6 -0.0,-0.0 0.4,-0.8 0.4,-0.9 -0.0,-0.1 -0.8,-0.5 -0.8,-0.6 0.0,-0.1 0.9,0.2 1.0,0.1 0.0,-0.0 0.2,-0.9 0.3,-0.9 0.1,0.0 0.1,0.9 0.2,0.9 0.0,0.0 0.9,-0.1 1.0,-0.0 z" transform="rotate(-6.4,42.8,93.8)" />
    <path class="star" d="m 80.8,83.8 c 0.0,0.1 -0.8,0.4 -0.8,0.5 -0.0,0.1 0.4,0.9 0.3,0.9 -0.0,0.0 -0.6,-0.7 -0.7,-0.7 -0.1,-0.0 -0.7,0.6 -0.8,0.6 -0.0,-0.0 0.4,-0.8 0.4,-0.9 -0.0,-0.1 -0.8,-0.5 -0.8,-0.6 0.0,-0.1 0.9,0.2 1.0,0.1 0.0,-0.0 0.2,-0.9 0.3,-0.9 0.1,0.0 0.1,0.9 0.2,0.9 0.0,0.0 0.9,-0.1 1.0,-0.0 z" transform="rotate(-7.4,79.5,84.1)" />
    <path class="star" d="m 51.4,107.8 c 0.0,0.1 -0.8,0.4 -0.8,0.5 -0.0,0.1 0.4,0.9 0.3,0.9 -0.0,0.0 -0.6,-0.7 -0.7,-0.7 -0.1,-0.0 -0.7,0.6 -0.8,0.6 -0.0,-0.0 0.4,-0.8 0.4,-0.9 -0.0,-0.1 -0.8,-0.5 -0.8,-0.6 0.0,-0.1 0.9,0.2 1.0,0.1 0.0,-0.0 0.2,-0.9 0.3,-0.9 0.1,0.0 0.1,0.9 0.2,0.9 0.0,0.0 0.9,-0.1 1.0,-0.0 z" />
    <path class="star" d="m 83.9,103.5 c 0.0,0.1 -0.8,0.4 -0.8,0.5 -0.0,0.1 0.4,0.9 0.3,0.9 -0.0,0.0 -0.6,-0.7 -0.7,-0.7 -0.1,-0.0 -0.7,0.6 -0.8,0.6 -0.0,-0.0 0.4,-0.8 0.4,-0.9 -0.0,-0.1 -0.8,-0.5 -0.8,-0.6 0.0,-0.1 0.9,0.2 1.0,0.1 0.0,-0.0 0.2,-0.9 0.3,-0.9 0.1,0.0 0.1,0.9 0.2,0.9 0.0,0.0 0.9,-0.1 1.0,-0.0 z" transform="rotate(-17.5,82.7,103.9)" />
    <path class="star" d="m 91.8,111.2 c 0.0,0.1 -0.8,0.4 -0.8,0.5 -0.0,0.1 0.4,0.9 0.3,0.9 -0.0,0.0 -0.6,-0.7 -0.7,-0.7 -0.1,-0.0 -0.7,0.6 -0.8,0.6 -0.0,-0.0 0.4,-0.8 0.4,-0.9 -0.0,-0.1 -0.8,-0.5 -0.8,-0.6 0.0,-0.1 0.9,0.2 1.0,0.1 0.0,-0.0 0.2,-0.9 0.3,-0.9 0.1,0.0 0.1,0.9 0.2,0.9 0.0,0.0 0.9,-0.1 1.0,-0.0 z" transform="rotate(-13,90.6,111.5)" />
    <path class="star" d="m 101.4,93.7 c 0.0,0.1 -0.8,0.4 -0.8,0.5 -0.0,0.1 0.4,0.9 0.3,0.9 -0.0,0.0 -0.6,-0.7 -0.7,-0.7 -0.1,-0.0 -0.7,0.6 -0.8,0.6 -0.0,-0.0 0.4,-0.8 0.4,-0.9 -0.0,-0.1 -0.8,-0.5 -0.8,-0.6 0.0,-0.1 0.9,0.2 1.0,0.1 0.0,-0.0 0.2,-0.9 0.3,-0.9 0.1,0.0 0.1,0.9 0.2,0.9 0.0,0.0 0.9,-0.1 1.0,-0.0 z" transform="rotate(-10.3,100.2,94)" />
    <path class="star" d="m 103.4,66.6 c 0,0.2 -2.5,1.2 -2.6,1.4 -0.1,0.2 1.1,2.7 1,2.8 -0.1,0.1 -2,-2 -2.1,-2 -0.2,-0 -2.2,1.9 -2.3,1.8 -0.1,-0.1 1.3,-2.5 1.2,-2.7 -0,-0.2 -2.5,-1.5 -2.4,-1.7 0.1,-0.2 2.8,0.5 2.9,0.4 0.1,-0.1 0.7,-2.8 0.8,-2.8 0.2,0 0.4,2.8 0.6,2.9 0.1,0.1 2.9,-0.2 2.9,-0.1 z" transform="rotate(22.7,100.5,66.4)" />
    <path class="letter char-h" d="m 45.9,76.2 0.7,-1.2 c 1.0,-1.8 2.3,-2.7 3.9,-2.7 1.8,0.0 2.1,0.5 1.9,2.9 -0.2,2.1 -0.7,2.9 -2.1,3.7 -0.5,0.3 -0.9,0.6 -0.8,0.7 0.1,0.1 -0.3,0.6 -0.8,1.0 -0.9,0.8 -2.6,1.4 -2.9,0.9 -0.1,-0.1 0.1,-0.2 0.5,-0.3 0.3,0.0 1.0,-0.3 1.5,-0.7 0.5,-0.3 1.0,-0.6 1.1,-0.6 0.1,-0.0 0.2,-0.1 0.2,-0.1 0.0,-0.1 0.1,-0.4 0.3,-0.7 1.2,-2.2 -1.7,-3.2 -2.5,-1.1 -0.1,0.0 -0.5,0.8 -0.9,1.8 -1.0,2.2 -1.7,5.1 -1.2,5.4 0.2,0.1 0.1,0.3 -0.1,0.4 -0.2,0.1 -0.5,0.8 -0.6,1.4 -0.1,1.0 -0.1,1.1 0.2,0.7 0.2,-0.3 0.9,-1.3 1.5,-2.2 1.5,-2.2 2.4,-2.9 3.1,-2.5 0.8,0.4 0.9,1.3 0.3,2.7 -0.7,1.6 -0.9,3.4 -0.9,8.0 0.0,4.0 0.3,5.5 1.0,4.9 0.2,-0.2 0.6,-0.8 0.9,-1.4 0.3,-0.7 0.5,-0.9 0.5,-0.5 0.0,0.3 -0.2,1.0 -0.5,1.7 -0.4,0.8 -0.7,1.1 -1.1,1.1 -0.8,0.0 -1.6,-1.0 -2.0,-2.4 -0.4,-1.5 -0.4,-7.2 0.1,-9.9 0.2,-1.2 0.3,-2.2 0.3,-2.2 -0.4,-0.5 -2.8,3.6 -3.9,6.6 -0.5,1.3 -0.9,2.4 -1.1,2.5 -0.1,0.1 -0.5,-0.1 -0.9,-0.3 -0.5,-0.3 -0.6,-0.6 -0.5,-1.1 0.1,-0.4 0.2,-1.2 0.3,-1.9 0.1,-0.7 0.3,-1.8 0.5,-2.5 0.2,-0.7 0.6,-2.1 0.8,-3.0 0.2,-0.9 0.5,-1.9 0.5,-2.1 0.1,-0.2 0.5,-1.4 0.9,-2.6 0.5,-1.2 0.9,-2.2 0.9,-2.3 0.4,-1.6 0.4,-1.1 0.9,-2.0 z m 1.8,19.4 c -0.1,-0.3 -0.1,-0.0 -0.1,0.5 0.0,0.5 0.1,0.7 0.1,0.5 0.1,-0.3 0.1,-0.7 0.0,-0.9 z M 47.7,76.0 c 0.1,0.3 2.3,1.8 3.0,1.0 m 0.0,0.0 c 0.2,0.0 0.5,-0.8 0.9,-1.7 v -0.0 c 0.4,-1.3 0.5,-1.8 0.3,-2.0 -0.5,-0.3 -1.7,0.2 -2.5,1.1 -0.4,0.4 -0.8,0.7 -0.9,0.6 -0.1,-0.1 -0.3,0.0 -0.4,0.2 -0.1,0.2 -0.1,0.2 0.1,0.1 0.2,-0.1 0.3,-0.1 0.2,0.2 -0.1,0.2 -0.3,0.3 -0.4,0.3 -0.2,-0.0 -0.3,0.1 -0.2,0.3 m -2.3,0.5 c -10.4,82.1 5.2,-41.1 0.0,0.0 z m 1.8,-1.2 c 0.3,-0.5 -0.0,-0.6 -0.4,-0.1 -0.2,0.3 -0.2,0.4 -0.1,0.4 0.2,0.0 0.4,-0.1 0.5,-0.3 z" />
    <path class="letter char-T" d="m 33.3,99.6 c 0.0,-0.1 1.3,-2.7 1.7,-3.3 0.4,-0.6 0.9,-2.1 1.0,-2.9 0.2,-1.4 0.7,-2.9 0.9,-2.7 0.2,0.1 0.5,-0.8 1.9,-5.7 0.6,-2.1 1.3,-5.4 1.3,-5.8 0.0,-0.1 -0.1,-0.2 -0.2,-0.2 -0.1,0.0 -0.2,-0.1 -0.2,-0.2 0.0,-0.1 0.1,-0.2 0.2,-0.2 0.1,0.0 0.4,-0.1 0.7,-0.4 0.4,-0.4 0.3,-0.4 -1.4,-0.3 -3.0,0.3 -5.4,1.3 -7.2,2.9 -1.9,1.8 -2.1,2.7 -0.6,3.3 1.7,0.7 5.4,-0.3 5.4,-1.5 0.0,-0.8 0.5,-0.8 0.6,-0.1 0.1,1.1 -1.0,2.0 -3.4,2.8 -2.5,0.8 -4.2,0.1 -4.2,-1.9 0.0,-2.5 2.2,-4.8 5.7,-6.1 2.4,-0.9 6.0,-1.4 8.7,-1.2 l 1.8,0.2 c 0.0,0.0 0.1,-0.5 1.7,-0.1 0.8,0.2 2.0,0.9 3.6,0.8 0.9,-0.0 0.2,1.2 -0.3,1.5 0.0,0.0 -1.0,0.8 -1.3,0.4 -0.3,-0.3 -0.7,-0.4 -1.3,-0.5 -0.7,-0.2 -1.4,-0.3 -1.5,-0.3 l -1.9,0.1 c 0.0,-0.1 -0.6,-0.2 -1.3,-0.3 l -1.3,-0.1 -0.9,3.1 c -1.0,3.7 -1.0,3.5 -2.5,8.8 -1.4,4.9 -2.1,6.8 -2.5,6.7 -0.2,-0.0 -0.3,0.0 -0.3,0.1 -0.0,0.1 -0.1,0.5 -0.1,0.8 -0.1,0.7 -0.8,1.6 -1.8,2.1 -0.8,0.4 -1.0,0.5 -1.0,0.2 z m 4.8,-8.1 c 0.1,-0.3 0.0,-0.5 -0.1,-0.4 -0.1,0.1 -0.2,0.3 -0.2,0.5 0.0,0.5 0.2,0.5 0.3,-0.1 z m -1.2,-0.3 c -0.1,-0.2 -0.1,-0.1 -0.2,0.2 -0.0,0.3 0.1,0.4 0.1,0.3 0.1,-0.1 0.1,-0.3 0.0,-0.5 z m -1.4,-6.8 c 0.1,-0.1 -0.2,-0.1 -0.5,-0.1 -0.4,0.1 -0.7,0.2 -0.8,0.3 -0.1,0.1 0.2,0.1 0.5,0.1 0.4,-0.1 0.7,-0.2 0.8,-0.3 z m 4.5,-0.3 c -0.1,-0.2 -0.1,-0.0 -0.1,0.3 0.0,0.4 0.1,0.5 0.1,0.3 0.1,-0.2 0.1,-0.5 0.0,-0.7 z m -3.2,-6.5 c 0.1,-0.1 -0.1,-0.2 -0.4,-0.1 -0.6,0.2 -0.7,0.3 -0.1,0.3 0.2,0.0 0.4,-0.1 0.5,-0.2 z m 3.3,-0.7 c 0.0,-0.1 -0.1,-0.2 -0.3,-0.3 -0.1,-0.1 -0.3,-0.0 -0.3,0.1 0.0,0.2 0.1,0.3 0.3,0.3 0.1,0.0 0.3,-0.1 0.3,-0.1 z m 5.2,-0.3 c -0.3,-0.1 -0.6,-0.1 -0.8,0.0 -0.2,0.1 0.0,0.1 0.5,0.1 0.4,-0.0 0.6,-0.1 0.3,-0.1 z" />
    <path class="letter char-n" d="m 68.0,91.0 c -0.4,0.9 -0.8,1.9 -0.9,2.1 -0.3,0.5 -1.4,0.4 -2.2,-0.3 -1.1,-0.9 -1.3,-2.2 -1.0,-4.7 0.2,-1.1 0.2,-2.1 0.1,-2.1 -0.5,0.0 -3.1,5.1 -3.1,6.0 -0.0,0.7 -0.2,0.7 -0.8,0.2 -0.6,-0.6 -0.8,-0.4 -1.4,1.5 -1.9,0.3 0.8,-2.0 0.9,-4.2 0.2,-0.8 0.4,-1.4 0.5,-1.5 0.1,-0.1 0.2,-0.4 0.1,-0.7 -0.1,-0.4 -0.1,-0.5 0.1,-0.2 0.2,0.3 0.3,0.3 0.4,-0.0 0.1,-0.2 0.0,-0.4 -0.1,-0.5 -0.2,-0.1 -0.2,-0.7 0.1,-2.0 l 0.4,-1.9 0.7,0.6 c 0.8,0.6 0.9,1.7 0.4,3.1 -0.6,1.7 -0.1,1.7 0.7,-0.0 1.0,-2.0 1.7,-2.6 2.9,-2.6 1.0,0.0 1.0,0.1 0.5,2.0 -0.9,3.0 -1.0,3.5 -0.9,4.7 0.3,2.5 1.0,2.3 2.7,-0.9 0.6,-1.1 1.2,-2.1 1.3,-2.1 0.1,1.3 -0.7,2.5 -1.3,3.7 z m -3.8,-2.6 c -0.1,-0.3 -0.1,-0.0 -0.1,0.5 0.0,0.5 0.1,0.7 0.1,0.5 0.1,-0.3 0.1,-0.7 0.0,-0.9 z m -3.0,0.3 c 0.1,-0.2 0.0,-0.3 -0.1,-0.2 -0.1,0.1 -0.3,0.3 -0.3,0.4 0.0,0.4 0.2,0.3 0.4,-0.2 z" />
    <path class="letter char-a" d="m 59.4,91.7 c -0.1,0.3 -0.3,0.1 -0.8,2.0 -0.6,1.9 -1.0,2.3 -2.0,1.8 -0.5,-0.2 -1.0,-0.7 -1.4,-1.5 -0.5,-1.1 -0.6,-1.5 -0.4,-4.0 l 0.2,-2.8 -1.6,3.1 c -0.9,1.7 -1.8,3.4 -2.1,3.6 -0.5,0.5 -0.6,0.5 -1.0,0.1 -0.3,-0.3 -0.4,-0.8 -0.4,-2.1 0.0,-0.9 0.2,-1.7 0.3,-1.9 0.1,-0.1 0.2,-0.4 0.1,-0.6 -0.4,-1.0 1.7,-6.7 2.7,-7.2 0.7,-0.4 1.6,-0.1 2.4,0.8 0.4,0.4 1.0,0.8 1.2,0.8 0.8,0.0 0.9,0.7 0.3,2.4 -0.5,1.6 -0.7,6.4 -0.3,7.5 0.1,0.3 0.2,0.6 0.2,0.8 0.1,0.9 2.6,-5.1 2.6,-5.1 0.0,0.0 0.4,-0.2 -0.0,2.2 z m -3.5,0.9 c -0.1,-0.2 -0.1,-0.0 -0.1,0.3 0.0,0.4 0.1,0.5 0.1,0.3 0.1,-0.2 0.1,-0.5 0.0,-0.7 z m -2.4,-4.0 c 2.1,-4.5 2.2,-4.6 1.2,-4.6 -0.8,0.0 -2.1,2.2 -2.8,4.6 -0.4,1.3 -0.7,2.6 -0.7,2.9 0.0,0.5 0.0,0.5 0.6,0.0 0.3,-0.3 1.1,-1.6 1.7,-2.9 z m -2.5,-0.1 c 0.3,-0.6 0.3,-0.6 -0.1,-0.1 -0.2,0.3 -0.4,0.6 -0.4,0.8 0.0,0.3 0.1,0.2 0.5,-0.6 z m 0.5,-1.6 c -0.1,-0.2 -0.1,-0.1 -0.2,0.2 -0.0,0.3 0.1,0.4 0.1,0.3 0.1,-0.1 0.1,-0.3 0.0,-0.5 z m 1.7,-3.4 c 0.2,-0.4 0.2,-0.5 0.0,-0.4 -0.2,0.1 -0.4,0.4 -0.6,0.7 -0.2,0.4 -0.2,0.5 -0.0,0.4 0.2,-0.1 0.4,-0.4 0.6,-0.7 z" />
    <path class="letter char-k" d="m 68.3,96.7 c -0.7,-0.7 -0.7,-1.6 0.1,-5.1 0.6,-2.5 0.5,-2.7 -0.3,-0.7 -0.4,0.9 -0.8,1.9 -0.9,2.1 -1.2,-0.2 0.3,-2.6 0.9,-3.7 0.6,-1.1 1.2,-2.1 1.3,-2.1 0.1,0.0 0.4,-0.9 0.6,-2.1 0.3,-1.1 0.6,-2.2 0.7,-2.3 0.1,-0.1 0.2,-0.5 0.2,-0.8 -0.0,-0.6 0.7,-2.9 1.7,-5.4 0.4,-1.0 0.7,-1.4 1.2,-1.6 0.4,-0.1 0.7,-0.1 0.8,0.0 0.1,0.1 -0.3,1.7 -0.9,3.6 -0.6,1.9 -1.2,3.6 -1.2,3.9 -0.1,0.7 -0.4,2.0 -0.6,2.6 -0.1,0.3 -0.0,0.4 0.2,0.3 0.4,-0.3 2.4,-3.2 3.2,-4.7 l 0.7,-1.3 0.6,0.6 0.6,0.6 -0.6,1.1 c -0.6,1.2 -2.7,3.6 -3.5,4.0 -0.5,0.3 -0.5,0.2 -0.0,-0.4 0.7,-1.0 -0.1,-0.6 -0.9,0.5 -0.7,1.0 -0.8,1.7 -0.2,0.9 0.2,-0.3 0.4,-0.4 0.4,-0.2 0.0,0.2 -0.2,0.5 -0.5,0.9 -0.4,0.5 -0.5,0.7 -0.2,1.4 0.2,0.5 0.4,1.0 0.5,1.1 0.1,0.1 0.2,0.4 0.2,0.7 0.0,0.2 0.3,0.8 0.6,1.2 0.6,0.8 0.6,0.8 1.3,0.3 0.4,-0.3 1.3,-1.6 2.1,-2.9 1.9,-3.2 2.1,-2.3 0.2,1.1 -0.8,1.5 -1.7,2.6 -2.0,2.8 -1.0,0.4 -2.3,-0.3 -3.2,-2.0 l -0.8,-1.4 -0.3,1.2 c -0.2,0.6 -0.4,1.3 -0.4,1.6 -0.1,0.2 -0.3,1.4 -0.5,2.6 l -0.3,2.2 -0.6,-0.7 z M 69.8,91.2 c 0.0,-0.1 -0.1,-0.2 -0.3,-0.1 -0.1,0.1 -0.3,0.3 -0.3,0.4 0.0,0.1 0.1,0.2 0.3,0.1 0.1,-0.1 0.3,-0.3 0.3,-0.4 z m -0.5,-1.0 c 0.1,-0.3 0.0,-0.5 -0.1,-0.4 -0.1,0.1 -0.2,0.3 -0.2,0.5 0.0,0.5 0.2,0.5 0.3,-0.1 z m 1.0,-2.5 c 0.0,-0.1 -0.1,-0.1 -0.2,0.1 -0.1,0.2 -0.2,0.6 -0.2,0.8 0.0,0.4 0.5,-0.4 0.5,-0.9 z m 2.7,-10.7 c 0.1,-0.3 0.0,-0.5 -0.1,-0.4 -0.1,0.1 -0.2,0.3 -0.2,0.5 0.0,0.5 0.2,0.5 0.3,-0.1 z" />
    <path class="letter char-!" d="m 112.8,88.1 c -0.5,-0.6 -0.5,-0.7 -0.2,-2.0 0.2,-0.9 0.3,-1.0 0.8,-0.7 0.9,0.5 1.1,1.2 0.7,2.1 -0.5,1.0 -0.8,1.2 -1.3,0.6 z m 1.1,-4.3 c -0.4,-0.3 -0.4,-0.5 -0.1,-1.8 0.2,-0.8 0.5,-1.9 0.8,-2.5 0.2,-0.6 0.6,-1.7 0.8,-2.4 0.2,-0.7 1.0,-2.8 1.7,-4.6 1.1,-2.7 1.4,-3.3 1.9,-3.4 0.9,-0.1 1.0,0.9 0.4,2.1 -0.5,0.9 -2.5,6.0 -3.3,8.6 -1.5,4.8 -1.4,4.6 -2.1,4.0 z" />
    <path class="letter char-o" d="m 94.5,92.3 c -0.3,-0.2 -0.8,-0.8 -1.0,-1.7 -0.4,-1.3 -0.4,-1.6 -0.2,-3.3 0.7,-3.9 2.9,-9.0 3.9,-9.1 0.4,-0.1 0.7,0.1 1.0,0.8 0.4,0.8 0.4,0.9 -0.1,1.4 -0.3,0.3 -1.1,1.6 -1.9,2.8 -1.2,2.0 -1.5,2.8 -1.7,4.0 -0.0,0.2 -0.2,0.7 -0.3,1.0 -0.3,0.9 0.1,3.5 0.5,3.5 0.5,0.0 1.9,-1.5 2.9,-3.3 0.5,-0.9 0.9,-1.7 0.9,-1.8 0.0,-0.1 -0.5,-0.1 -1.1,-0.0 -0.9,0.1 -1.2,0.0 -1.6,-0.4 -0.4,-0.5 -0.4,-1.5 0.1,-1.3 0.1,0.1 0.2,-0.1 0.2,-0.5 -0.0,-0.3 0.1,-0.6 0.3,-0.6 0.4,-0.0 0.9,-0.7 0.7,-1.0 -0.2,-0.3 1.5,-1.6 2.2,-1.6 0.9,0.0 1.3,1.0 0.9,2.1 -0.4,1.2 -0.4,1.5 0.2,0.8 0.3,-0.3 0.8,-0.8 1.2,-1.0 0.4,-0.2 0.5,-0.9 0.8,-1.3 0.2,0.9 0.3,1.0 -0.5,1.7 l -1.2,1.1 c -0.9,0.8 -1.3,1.4 -1.5,2.3 -0.4,1.5 -1.6,3.8 -2.8,5.2 -0.3,0.4 -1.2,0.4 -2.0,0.0 z m 4.4,-7.2 c 0.6,-0.6 1.2,-3.1 0.7,-3.1 -0.6,0.0 -2.2,1.9 -2.7,3.3 -0.3,0.7 -0.3,0.7 0.6,0.6 0.5,-0.1 1.1,-0.5 1.5,-0.8 z" />
    <path class="letter char-u" d="m 101.7,83.2 c 0.4,-0.2 0.7,-0.8 0.8,-1.3 0.1,-0.5 0.3,-1.2 0.6,-1.6 0.2,-0.4 0.4,-0.9 0.4,-1.2 0.0,-0.3 0.2,-0.5 0.6,-0.5 1.5,0.0 1.6,1.4 0.3,4.2 -0.5,1.1 -1.0,2.7 -1.1,3.5 -0.3,2.4 0.5,1.9 2.3,-1.5 0.6,-1.1 1.1,-2.2 1.1,-2.4 0.0,-0.2 0.3,-0.7 0.6,-1.2 0.3,-0.5 0.9,-1.7 1.2,-2.6 0.7,-2.1 0.9,-2.3 1.4,-1.9 0.6,0.5 0.5,2.2 -0.1,4.1 -0.3,0.9 -0.6,2.0 -0.7,2.5 -0.1,0.5 -0.2,1.6 -0.4,2.4 -0.3,1.8 -0.3,4.3 -0.0,4.3 0.2,0.0 1.4,-2.2 2.3,-4.4 0.4,-1.1 1.2,-1.7 0.8,-0.7 -2.2,6.0 -3.2,7.2 -4.3,5.4 -0.4,-0.6 -0.5,-1.2 -0.4,-3.4 0.0,-1.5 0.1,-3.0 0.2,-3.4 0.1,-0.4 -0.3,0.3 -0.9,1.5 -1.4,2.9 -1.3,2.9 -2.2,3.4 -0.7,0.4 -0.8,0.4 -1.5,0.0 -0.8,-0.5 -1.1,-1.7 -0.9,-3.6 l 0.2,-1.2 c -0.0,0.0 -0.3,-0.4 -0.3,-0.4 z" />
    <path class="letter char-y" d="m 87.4,99.0 c -0.7,-0.7 -0.7,-0.9 -0.6,-2.6 0.1,-1.0 0.3,-2.3 0.5,-2.9 0.2,-0.6 0.5,-1.6 0.6,-2.1 0.1,-0.6 0.5,-1.8 0.8,-2.8 0.4,-1.0 0.6,-1.9 0.6,-1.9 -0.1,-0.1 -0.5,0.7 -0.9,1.6 -1.2,2.4 -2.2,2.7 -3.3,1.0 -0.8,-1.2 -0.7,-2.3 0.4,-6.8 0.1,-0.6 0.3,-1.5 0.4,-2.1 0.2,-1.2 0.7,-1.3 1.6,-0.4 l 0.6,0.6 -0.7,2.1 c -0.4,1.1 -0.9,2.4 -1.1,2.8 -0.2,0.4 -0.3,0.8 -0.2,1.0 0.1,0.1 0.0,0.3 -0.1,0.4 -0.1,0.1 -0.2,0.5 -0.1,0.9 0.4,1.9 0.6,2.1 1.2,0.8 0.2,-0.4 0.4,-0.8 0.6,-0.8 0.1,0.0 0.3,-0.3 0.5,-0.6 0.1,-0.3 0.6,-1.1 1.1,-1.8 0.8,-1.2 1.9,-4.1 2.5,-7.1 0.2,-0.9 0.4,-2.0 0.5,-2.3 0.1,-0.6 0.2,-0.6 0.9,-0.2 0.4,0.2 0.8,0.6 0.9,0.9 0.2,0.8 -3.2,11.0 -4.0,11.9 -0.7,0.8 -0.8,1.1 -0.2,0.6 0.4,-0.3 0.4,-0.3 0.2,0.2 -0.2,0.6 -1.1,4.7 -1.4,6.2 l -0.1,0.9 0.5,-1.1 c 1.2,-2.4 2.6,-3.7 3.8,-3.3 0.5,0.2 0.4,0.2 -0.5,0.7 -1.5,0.7 -3.3,3.7 -3.3,5.7 -0.0,1.7 -0.5,1.9 -1.6,0.7 z m 1.9,-8.5 c -0.1,-0.2 -0.1,-0.1 -0.2,0.2 -0.0,0.3 0.1,0.4 0.1,0.3 0.1,-0.1 0.1,-0.3 0.0,-0.5 z" />
  </g>
</svg>
